<svg width="183" height="183" viewBox="0 0 183 183" fill="none" xmlns="http://www.w3.org/2000/svg">
<path d="M5.71875 113.231C7.23546 113.231 8.69004 113.834 9.76252 114.906C10.835 115.979 11.4375 117.433 11.4375 118.95V147.544C11.4375 150.577 12.6425 153.486 14.7875 155.631C16.9324 157.776 19.8416 158.981 22.875 158.981H160.125C163.158 158.981 166.068 157.776 168.213 155.631C170.357 153.486 171.562 150.577 171.562 147.544V118.95C171.562 117.433 172.165 115.979 173.237 114.906C174.31 113.834 175.765 113.231 177.281 113.231C178.798 113.231 180.253 113.834 181.325 114.906C182.397 115.979 183 117.433 183 118.95V147.544C183 153.611 180.59 159.429 176.3 163.719C172.01 168.009 166.192 170.419 160.125 170.419H22.875C16.8082 170.419 10.9898 168.009 6.69993 163.719C2.41004 159.429 0 153.611 0 147.544V118.95C0 117.433 0.602509 115.979 1.67498 114.906C2.74746 113.834 4.20204 113.231 5.71875 113.231Z" fill="#F6D31F"/>
<path d="M87.451 135.58C87.9823 136.113 88.6133 136.535 89.3081 136.824C90.0029 137.112 90.7477 137.26 91.4999 137.26C92.2521 137.26 92.9969 137.112 93.6917 136.824C94.3865 136.535 95.0176 136.113 95.5488 135.58L129.861 101.268C130.935 100.194 131.538 98.7374 131.538 97.2188C131.538 95.7001 130.935 94.2437 129.861 93.1699C128.787 92.096 127.331 91.4928 125.812 91.4928C124.294 91.4928 122.837 92.096 121.764 93.1699L97.2187 117.726V17.1562C97.2187 15.6395 96.6161 14.185 95.5437 13.1125C94.4712 12.04 93.0166 11.4375 91.4999 11.4375C89.9832 11.4375 88.5286 12.04 87.4561 13.1125C86.3837 14.185 85.7812 15.6395 85.7812 17.1562V117.726L61.2363 93.1699C60.1624 92.096 58.706 91.4928 57.1874 91.4928C55.6688 91.4928 54.2124 92.096 53.1385 93.1699C52.0647 94.2437 51.4614 95.7001 51.4614 97.2188C51.4614 98.7374 52.0647 100.194 53.1385 101.268L87.451 135.58Z" fill="#F6D31F"/>
</svg>
