<svg width="183" height="183" viewBox="0 0 183 183" fill="none" xmlns="http://www.w3.org/2000/svg">
<path d="M5.71875 113.231C7.23546 113.231 8.69004 113.834 9.76252 114.906C10.835 115.979 11.4375 117.433 11.4375 118.95V147.544C11.4375 150.577 12.6425 153.486 14.7875 155.631C16.9324 157.776 19.8416 158.981 22.875 158.981H160.125C163.158 158.981 166.068 157.776 168.213 155.631C170.357 153.486 171.562 150.577 171.562 147.544V118.95C171.562 117.433 172.165 115.979 173.237 114.906C174.31 113.834 175.765 113.231 177.281 113.231C178.798 113.231 180.253 113.834 181.325 114.906C182.397 115.979 183 117.433 183 118.95V147.544C183 153.611 180.59 159.429 176.3 163.719C172.01 168.009 166.192 170.419 160.125 170.419H22.875C16.8082 170.419 10.9898 168.009 6.69993 163.719C2.41004 159.429 0 153.611 0 147.544V118.95C0 117.433 0.60251 115.979 1.67498 114.906C2.74746 113.834 4.20204 113.231 5.71875 113.231Z" fill="#9B4191"/>
<path d="M95.5495 13.1176C95.0182 12.585 94.3872 12.1625 93.6924 11.8742C92.9976 11.5859 92.2528 11.4375 91.5006 11.4375C90.7484 11.4375 90.0036 11.5859 89.3088 11.8742C88.614 12.1625 87.9829 12.585 87.4517 13.1176L53.1392 47.4301C52.0654 48.5039 51.4621 49.9604 51.4621 51.479C51.4621 52.9976 52.0654 54.454 53.1392 55.5278C54.213 56.6017 55.6695 57.2049 57.1881 57.2049C58.7067 57.2049 60.1631 56.6017 61.237 55.5278L85.7818 30.9715L85.7818 131.541C85.7818 133.058 86.3843 134.513 87.4568 135.585C88.5293 136.658 89.9839 137.26 91.5006 137.26C93.0173 137.26 94.4719 136.658 95.5444 135.585C96.6168 134.513 97.2193 133.058 97.2193 131.541L97.2193 30.9715L121.764 55.5278C122.838 56.6017 124.294 57.2049 125.813 57.2049C127.332 57.2049 128.788 56.6017 129.862 55.5278C130.936 54.454 131.539 52.9976 131.539 51.479C131.539 49.9604 130.936 48.5039 129.862 47.4301L95.5495 13.1176Z" fill="#9B4191"/>
</svg>
